P2
#a
4 4
31
0 1 0 1
2 3 2 3
0 1 0 1
2 3 2 3