P2
#a
4 4
65
1 1 3 4
1 1 7 8
9 10 11 12
13 14 15 16
